<svg xmlns="http://www.w3.org/2000/svg" viewBox="0 0 493.23 493.23"><defs><style>.cls-1{fill:#e5e5e5;}</style></defs><title>アートボード 2</title><g id="reflejo_vh" data-name="reflejo vh"><path class="cls-1" d="M419.39,194.27c-4-37.79-26.18-72.74-62.38-98.43a199.93,199.93,0,0,0-78.6-33.15v37.83A164.3,164.3,0,0,1,335.6,126c27.42,19.46,44.11,45.08,47,72.16,2.13,20,11,36.57,25.74,48.43-14.74,11.87-23.61,28.47-25.74,48.44-2.88,27.07-19.57,52.7-47,72.16a164.3,164.3,0,0,1-57.19,25.5v37.82A199.78,199.78,0,0,0,357,397.38c36.2-25.68,58.35-60.63,62.38-98.42,3.41-32.06,37.46-33.69,44.25-33.69V228C456.85,228,422.8,226.33,419.39,194.27Z"/><path class="cls-1" d="M73.84,194.27C70.43,226.33,36.38,228,29.59,228v37.31c6.79,0,40.84,1.63,44.25,33.69,4,37.79,26.18,72.74,62.38,98.42a199.74,199.74,0,0,0,78.59,33.15V392.71a164.33,164.33,0,0,1-57.18-25.5c-27.42-19.46-44.11-45.09-47-72.16-2.12-20-11-36.57-25.73-48.44,14.74-11.86,23.61-28.46,25.73-48.43,2.89-27.08,19.58-52.7,47-72.16a164.33,164.33,0,0,1,57.18-25.5V62.69a199.89,199.89,0,0,0-78.59,33.15C100,121.53,77.86,156.48,73.84,194.27Z"/></g><g id="normal"><path class="cls-1" d="M210.46,304.15a57.7,57.7,0,1,1,57.7-57.69A57.76,57.76,0,0,1,210.46,304.15Zm0-93.39a35.7,35.7,0,1,0,35.7,35.7A35.73,35.73,0,0,0,210.46,210.76Z"/><rect class="cls-1" x="304.83" y="194.5" width="22" height="103.91"/></g></svg>