<svg xmlns="http://www.w3.org/2000/svg" viewBox="0 0 493.23 493.23"><defs><style>.cls-1{fill:#e5e5e5;}</style></defs><title>アートボード 2</title><g id="normal"><path class="cls-1" d="M486,189.27a11,11,0,0,0-14.87-4.56l-23.94,12.71c-12.9-22.72-29-46.68-49-68.15L418,111.48a11,11,0,0,0-14.69-16.37l-20.78,18.64c-19.85-18.07-43-33.33-70-43l8.6-25.88a11,11,0,1,0-20.88-6.94l-8.83,26.59a201.64,201.64,0,0,0-89.69,0L192.94,37.9a11,11,0,0,0-20.88,6.94l8.6,25.88c-27,9.7-50.14,25-70,43L89.89,95.11A11,11,0,0,0,75.2,111.48L95,129.27c-20,21.47-36.1,45.43-49,68.15L22.07,184.71a11,11,0,1,0-10.31,19.43l23.82,12.65c-5.45,10.65-10.18,20.74-14.25,29.82,29.84,66.53,94.47,187.18,225.28,187.18S442.05,313.14,471.9,246.61c-4.08-9.08-8.8-19.17-14.25-29.82l23.82-12.65A11,11,0,0,0,486,189.27ZM360.58,360.58a161.16,161.16,0,1,1,47.21-114A160.12,160.12,0,0,1,360.58,360.58Z"/><path class="cls-1" d="M246.61,101.9A144.72,144.72,0,1,0,391.33,246.61,144.71,144.71,0,0,0,246.61,101.9Zm26.78,257a85.5,85.5,0,1,1,85.5-85.5A85.5,85.5,0,0,1,273.39,358.89Z"/></g></svg>