<svg id="reflejo_h" data-name="reflejo h" xmlns="http://www.w3.org/2000/svg" viewBox="0 0 493.23 493.23"><defs><style>.cls-1{fill:#e5e5e5;}</style></defs><title>アートボード 2</title><path class="cls-1" d="M381.76,109.69c-32.91-44-71.61-70.22-103.51-70.22-13.35,0-24.09,3.49-31.64,9.92C239.07,43,228.33,39.47,215,39.47c-31.9,0-70.6,26.25-103.51,70.22-32.53,43.47-52,94.61-52,136.8,0,50.23,20.22,97.85,56.93,134.1,31.45,31.05,72.17,50.34,106.27,50.34a35.17,35.17,0,0,0,23.9-8.74,35.22,35.22,0,0,0,23.91,8.74c34.1,0,74.82-19.29,106.27-50.34,36.71-36.25,56.92-83.87,56.92-134.1C433.71,204.3,414.29,153.16,381.76,109.69Zm-159,296.24c-31.07,0-47.88-19.78-45.88-42.78-20,9-43.44,10-64.65-20.35-17.88-25.59-9.38-55.18,2.12-64.68-16-7-36-41.63-18-95.13,12.45-37,41.51-56.43,65-53.43-6-20.5.5-41.51,17.69-54.58,10.48-8,24.89-10.51,36-10.51,9.68,0,19.13,1.15,19.13,15V391.39C234.11,398,232.13,405.93,222.71,405.93ZM381.05,342.8c-21.21,30.35-44.64,29.35-64.65,20.35,2,23-14.81,42.78-45.88,42.78-9.43,0-11.41-7.9-11.41-14.54V79.47c0-13.85,9.46-15,19.14-15,11.08,0,25.48,2.54,36,10.51,17.2,13.07,23.7,34.08,17.7,54.58,23.51-3,52.57,16.41,65,53.43,18,53.5-2,88.12-18,95.13C390.43,287.62,398.93,317.21,381.05,342.8Z"/></svg>